<svg width="45" height="24" viewBox="0 0 45 24" fill="none" xmlns="http://www.w3.org/2000/svg">
<path d="M43.77 21.2002C43.72 21.1002 43.67 21.0099 43.62 20.9399C42.86 19.6899 41.41 18.1598 39.27 16.3398L39.22 16.29L39.2 16.27L39.1801 16.25H39.16C38.18 15.41 37.5701 14.8398 37.3101 14.5498C36.8401 13.9898 36.73 13.4298 36.99 12.8598C37.17 12.4298 37.86 11.5198 39.04 10.1298C39.66 9.38984 40.16 8.79982 40.52 8.35982C43.15 5.16982 44.2899 3.1302 43.9399 2.2402L43.8 2.02975C43.71 1.89975 43.48 1.7899 43.1 1.6899C42.72 1.5799 42.23 1.55984 41.64 1.62984L35.08 1.68014C34.97 1.64014 34.82 1.6399 34.62 1.6899C34.43 1.7299 34.33 1.74996 34.33 1.74996L34.21 1.79977L34.12 1.85982C34.05 1.89982 33.96 1.98004 33.87 2.08004C33.78 2.19004 33.7 2.31016 33.64 2.45016C32.93 4.13016 32.12 5.68984 31.21 7.12984C30.64 7.98984 30.13 8.74008 29.66 9.37008C29.19 10.0001 28.79 10.47 28.47 10.77C28.15 11.06 27.87 11.2999 27.61 11.4799C27.35 11.6699 27.15 11.7399 27.02 11.7099C26.88 11.6899 26.75 11.6598 26.63 11.6298C26.42 11.5098 26.24 11.3401 26.12 11.1201C25.99 10.9101 25.9 10.63 25.85 10.31C25.81 9.98002 25.78 9.69992 25.77 9.45992C25.77 9.22992 25.77 8.89992 25.79 8.45992C25.8 8.02992 25.8101 7.73981 25.8101 7.58981C25.8101 7.05981 25.82 6.49008 25.84 5.87008C25.86 5.25008 25.88 4.75986 25.9 4.39986C25.91 4.03986 25.92 3.65973 25.92 3.25973C25.92 2.85973 25.89 2.54002 25.84 2.31002C25.79 2.08002 25.71 1.8601 25.6 1.6401C25.5 1.4301 25.34 1.2601 25.14 1.1401C24.93 1.0301 24.68 0.929825 24.37 0.859825C23.57 0.699825 22.54 0.609805 21.3 0.589805C18.47 0.559805 16.66 0.729805 15.85 1.08981C15.53 1.23981 15.25 1.45018 14.99 1.72018C14.71 2.02018 14.68 2.19018 14.87 2.22018C15.79 2.34018 16.4301 2.63982 16.8101 3.10982L16.95 3.35982C17.05 3.53982 17.16 3.85979 17.27 4.31979C17.37 4.77979 17.44 5.28981 17.47 5.83981C17.55 6.84981 17.55 7.7199 17.47 8.4399C17.39 9.1699 17.32 9.72984 17.25 10.1298C17.19 10.5298 17.08 10.8598 16.95 11.1098C16.81 11.3598 16.72 11.5098 16.67 11.5698C16.63 11.6198 16.5901 11.6599 16.5601 11.6699C16.3601 11.7399 16.1599 11.7797 15.9399 11.7797C15.7299 11.7797 15.47 11.6799 15.17 11.4799C14.87 11.2899 14.55 11.0201 14.22 10.6801C13.9 10.3401 13.53 9.86973 13.12 9.25973C12.71 8.63973 12.28 7.91981 11.84 7.08981L11.48 6.4902C11.25 6.1002 10.94 5.53 10.55 4.79C10.15 4.05 9.8 3.32984 9.5 2.62984C9.38 2.33984 9.18995 2.12018 8.94995 1.97018L8.83997 1.89986C8.75997 1.84986 8.63997 1.78994 8.46997 1.72994C8.30997 1.65994 8.12995 1.61981 7.94995 1.58981L1.70996 1.62984C1.06996 1.62984 0.640034 1.75975 0.410034 2.02975L0.319946 2.14986C0.269946 2.21986 0.25 2.3302 0.25 2.4902C0.25 2.6402 0.300015 2.82977 0.390015 3.04977C1.30001 5.00977 2.28999 6.89992 3.35999 8.70992C4.42999 10.5299 5.36002 11.9998 6.15002 13.1098C6.94002 14.2198 7.74006 15.27 8.56006 16.25C9.38006 17.24 9.92994 17.8699 10.1899 18.1499C10.4599 18.4299 10.6699 18.63 10.8199 18.77L11.39 19.27C11.75 19.61 12.29 20.0002 12.99 20.4702C13.7 20.9402 14.48 21.3901 15.34 21.8501C16.2 22.3001 17.2 22.6602 18.34 22.9502C19.48 23.2302 20.58 23.35 21.66 23.29H24.28C24.81 23.25 25.22 23.1 25.49 22.83L25.58 22.7299C25.64 22.6499 25.7 22.5198 25.75 22.3398C25.8 22.1698 25.83 21.98 25.83 21.77C25.81 21.18 25.86 20.6401 25.98 20.1601C26.09 19.6801 26.22 19.32 26.37 19.08C26.51 18.83 26.67 18.6299 26.86 18.4599C27.04 18.2899 27.17 18.1901 27.24 18.1601C27.32 18.1201 27.38 18.0998 27.42 18.0898C27.79 17.9798 28.22 18.0801 28.71 18.4101C29.21 18.7401 29.67 19.1401 30.1 19.6201C30.53 20.1001 31.05 20.6299 31.66 21.2299C32.27 21.8299 32.8 22.27 33.26 22.56L33.71 22.81C34.02 22.98 34.41 23.13 34.9 23.27C35.38 23.41 35.81 23.4498 36.17 23.3798L42 23.29C42.58 23.29 43.03 23.2097 43.35 23.0297C43.67 22.8597 43.86 22.6699 43.92 22.4599C43.98 22.2499 43.9801 22.02 43.9301 21.75C43.8701 21.49 43.82 21.3002 43.77 21.2002Z" fill="white"/>
</svg>
