<svg width="32" height="9" viewBox="0 0 32 9" fill="none" xmlns="http://www.w3.org/2000/svg">
<path d="M27.5 8.32996C27.72 8.32996 27.93 8.24997 28.09 8.08997L31.42 4.76001C31.75 4.43001 31.75 3.89996 31.42 3.57996L28.09 0.23999C27.93 0.0899902 27.72 0 27.5 0H4.17004C1.87004 0 0 1.87004 0 4.17004C0 6.47004 1.87004 8.32996 4.17004 8.32996H27.5ZM27.28 1.80005L29.65 4.17004L27.28 6.54004L26.6899 4.17004L27.28 1.80005ZM6.67004 1.67004H25.6L25.1801 3.32996H8.32996V5H25.1801L25.6 6.67004H6.67004V1.67004ZM1.67004 4.17004C1.67004 2.79004 2.79004 1.67004 4.17004 1.67004H5V6.67004H4.17004C2.79004 6.67004 1.67004 5.55004 1.67004 4.17004Z" fill="white"/>
</svg>
