<svg width="47" height="50" viewBox="0 0 47 50" fill="none" xmlns="http://www.w3.org/2000/svg">
<path d="M46.17 0H8.67004C8.21004 0 7.82996 0.369956 7.82996 0.829956V13.33H9.5V1.67004H45.33V47.5C45.34 47.94 44.9999 48.31 44.5699 48.33C44.4899 48.33 44.42 48.33 44.35 48.33C44.2 48.32 44.06 48.32 43.91 48.3C43.9 48.3 43.89 48.3 43.87 48.3C41.15 48 39 45.85 38.7 43.13C38.7 43.12 38.7 43.11 38.7 43.1C38.68 42.9 38.67 42.7 38.67 42.5V40.83C38.67 40.37 38.29 40 37.83 40H9.5V25H7.82996V40H1.17004C0.710044 40 0.329956 40.37 0.329956 40.83V42.5C0.339956 46.64 3.68996 50 7.82996 50H44.58C45.94 49.96 47.01 48.85 47 47.5V0.829956C47 0.369956 46.63 0 46.17 0ZM7.82996 48.33C4.60996 48.33 2 45.72 2 42.5V41.67H37V42.5C37 42.77 37.02 43.0499 37.05 43.3199C37.05 43.3899 37.07 43.46 37.08 43.54C37.11 43.74 37.1401 43.94 37.1801 44.14C37.2001 44.21 37.22 44.27 37.24 44.34C37.29 44.54 37.34 44.7399 37.41 44.9399C37.43 44.9899 37.45 45.05 37.47 45.1C37.55 45.31 37.63 45.51 37.73 45.71C37.75 45.75 37.76 45.79 37.78 45.83C37.89 46.04 38 46.25 38.13 46.45C38.15 46.47 38.1601 46.5 38.1801 46.53C38.3101 46.74 38.46 46.95 38.62 47.15L38.64 47.1801C38.83 47.4101 39.02 47.63 39.23 47.84C39.41 48.01 39.59 48.18 39.78 48.34L7.82996 48.33Z" fill="white"/>
</svg>
